<svg version="1.1" xmlns="http://www.w3.org/2000/svg" viewBox="-307.2 -3348.480200195312 4381.696142578125 3983.36025390625"><desc>Created with Snap</desc><defs><linearGradient x1="-307.2" y1="-3348.480200195312" x2="4074.496142578125" y2="-3348.480200195312" gradientUnits="userSpaceOnUse" id="linearGradientSks1x003s22i"><stop offset="0%" stop-color="#222e49"></stop><stop offset="100%" stop-color="#5064ae"></stop></linearGradient></defs><g><rect x="-307.2" y="-3348.480200195312" width="4381.696142578125" height="3983.36025390625" fill="url('#linearGradientSks1x003s22i')"></rect><g transform="matrix(64.3168,0,0,64.3168,240.6331,-3589.3611)"><g><path d="M22.8945866,20.5718117h-5.9344025c-0.355547,0-0.6437721,0.2882252-0.6437721,0.6437702l0,0v4.9394836   c-3.9377317-2.2295704-8.9373188-0.8448315-11.1668873,3.0929012s-0.844831,8.9373169,3.0929027,11.1668892   c2.6909437,1.5236282,6.0104742,1.4024353,8.5831499-0.3133583c0.0643768,0,6.0456009,0.040966,6.0456009,0.040966   c0.355545,0,0.6437702-0.2882271,0.6437702-0.6437721V21.2155819   C23.5151768,20.8689823,23.2409573,20.5844135,22.8945866,20.5718117z M5.1147866,33.2892227   c0.0032339-3.9400864,3.1999259-7.1315346,7.1400113-7.1282997c3.9400854,0.003233,7.1315355,3.1999264,7.1283026,7.1400108   c-0.003233,3.9377975-3.1963558,7.1283035-7.1341553,7.1283035C12.2489452,40.4292374,5.3781476,40.2770729,5.1147866,33.2892227z    M22.2449608,38.8549232h-3.9738255c3.0783997-3.3007927,3.3007908-8.831377-0.6788864-11.903923v-5.0857944h4.6468601   L22.2449608,38.8549232z" fill="#ffffff" style=""></path><path d="M31.5086784,26.5296249h-5.9109936c-0.355545,0-0.6437702,0.2882252-0.6437702,0.6437702v12.2433643   c0,0.355545,0.2882252,0.6437683,0.6437702,0.6437683h5.9109936c0.355545,0,0.6437721-0.2882233,0.6437721-0.6437683V27.1792469   c0.0032463-0.3555298-0.2823372-0.6463757-0.637867-0.6496239c-0.0000172,0-0.0000362,0-0.0000534,0L31.5086784,26.5296249z    M30.8649063,38.7671318h-4.6410084v-10.920702h4.6410084V38.7671318z" fill="#ffffff" style=""></path><path d="M40.2295952,16.9491329h-5.9344025c-0.355545,0-0.6437683,0.2882252-0.6437683,0.6437702v22.1691513   c0,0.355545,0.2882233,0.6437721,0.6437683,0.6437721h5.9344025c0.355545,0,0.6437721-0.2882271,0.6437721-0.6437721V17.5987568   c0.0032463-0.3555298-0.2823372-0.6463757-0.6378632-0.6496239c-0.0000191,0-0.0000343,0-0.0000534,0H40.2295952z    M39.5624161,39.1124306h-4.6234512V18.242527h4.6234512V39.1124306z" fill="#ffffff" style=""></path><path d="M19.3831043,16.0419998c0.9696674,0,1.7557411-0.7860727,1.7557411-1.7557402   c0-0.9696693-0.7860737-1.7557411-1.7557411-1.7557411s-1.7557392,0.7860718-1.7557392,1.7557411   C17.6273651,15.2559271,18.4134369,16.0419998,19.3831043,16.0419998z M19.3831043,13.6249294   c0.368475,0,0.667181,0.298707,0.667181,0.667181s-0.2987061,0.667181-0.667181,0.667181   c-0.3684731,0-0.667181-0.298707-0.667181-0.6671791v-0.0000019l0,0   C18.7191029,13.924962,19.0159569,13.6281099,19.3831043,13.6249294z" fill="#ffffff" style=""></path><path d="M27.9979382,22.5089779c0.9696693,0,1.7557411-0.7860737,1.7557411-1.7557411s-0.7860718-1.7557411-1.7557411-1.7557411   c-0.9696674,0-1.7557392,0.7860737-1.7557392,1.7557411S27.0282707,22.5089779,27.9979382,22.5089779z M28.6651192,20.7532368   c0,0.3684731-0.2987061,0.667181-0.667181,0.667181c-0.3684731,0-0.667181-0.298708-0.667181-0.667181   c0-0.368475,0.298708-0.667181,0.667181-0.667181l0,0l0,0C28.3664131,20.0860558,28.6651192,20.3847618,28.6651192,20.7532368   L28.6651192,20.7532368z" fill="#ffffff" style=""></path><path d="M39.0708122,10.277318c0-0.9696684-0.7860756-1.7557402-1.7557411-1.7557402   c-0.9696693,0-1.7557411,0.7860718-1.7557411,1.7557402c-0.0279655,0.9078255,0.6852989,1.6664343,1.5931244,1.6944008   c0.0542259,0.0016699,0.1084938,0.0006561,0.1626167-0.0030375c0.9199028,0.0485935,1.7050209-0.6577435,1.7536125-1.5776453   C39.0706863,10.3531656,39.0713959,10.315237,39.0708122,10.277318z M37.3150711,9.610137   c0.3684158,0.0065241,0.6617851,0.3104725,0.655262,0.6788883s-0.3104706,0.6617889-0.6788864,0.6552649   c-0.3592262-0.0063601-0.6489067-0.2960396-0.6552658-0.6552668c-0.0064774-0.3684168,0.2869301-0.6723309,0.6553497-0.6788092   c0.0058937-0.000104,0.0117912-0.0001297,0.0176849-0.0000772H37.3150711z" fill="#ffffff" style=""></path><path d="M9.7148266,23.5858307c0.9696693,0,1.7557402-0.7860718,1.7557402-1.7557392   c-0.0185242-0.3995018-0.1595087-0.7836342-0.40382-1.1002655c-0.604497-0.7581844-1.7091665-0.8827705-2.4673491-0.2782745   c-0.758184,0.604496-0.882771,1.7091675-0.2782755,2.4673481c0.3377075,0.4235668,0.8520288,0.6675262,1.3937044,0.6610794   V23.5858307z M9.7148266,21.1687603c0.368474,0,0.667181,0.298708,0.667182,0.667181   c0,0.368475-0.298707,0.6671829-0.667181,0.6671829s-0.667182-0.298708-0.667182-0.6671829l0,0l0,0   C9.0508251,21.468792,9.3476772,21.1719398,9.7148266,21.1687603z" fill="#ffffff" style=""></path><path d="M45.2510147,14.7134895c-0.9696655,0-1.7557411,0.7860727-1.7557411,1.7557411s0.7860756,1.7557392,1.7557411,1.7557392   c0.9696693,0,1.7557411-0.7860718,1.7557411-1.7557392S46.2206841,14.7134895,45.2510147,14.7134895z M45.2510147,17.1305599   c-0.3684769,0-0.6671791-0.298708-0.6671791-0.667181c0-0.368475,0.2987022-0.667182,0.6671791-0.667182   c0.3684731,0,0.6671829,0.298707,0.6671829,0.667182l0,0l0,0c-0.0063324,0.3648605-0.3022766,0.6582108-0.6671829,0.6613293   V17.1305599z" fill="#ffffff" style=""></path><path d="M12.6410608,19.71735c-0.2809181,0.2340984-0.585247,0.3570004-0.7783785,0.0994911   c-0.1931314-0.2575111-0.0468197-0.5150185,0.2340984-0.7491169c0.2809181-0.2340965,0.585247-0.3628521,0.7783785-0.0994911   C13.0682907,19.231596,12.9278316,19.4773979,12.6410608,19.71735z" fill="#ffffff" style=""></path><path d="M14.6894245,18.0376911c-0.2809181,0.2341003-0.585247,0.3570004-0.7783775,0.0994911   c-0.1931314-0.2575092-0.0468197-0.5150185,0.2340984-0.749115c0.2809181-0.2340984,0.5852461-0.3628521,0.7783775-0.0994911   S14.982048,17.8035927,14.6894245,18.0376911z" fill="#ffffff" style=""></path><path d="M16.6617069,16.4633789c-0.28092,0.2340984-0.585247,0.3570004-0.7783804,0.0994911   c-0.1931324-0.2575111-0.0468206-0.5150185,0.2340994-0.7491159s0.585247-0.3628531,0.7783794-0.0994911   S16.942625,16.240984,16.6617069,16.4633789z" fill="#ffffff" style=""></path><path d="M25.3643284,19.1672173c0.2809181,0.2341003,0.585247,0.3570023,0.7783794,0.0994911   c0.1931324-0.2575092,0.0468197-0.5150166-0.2341003-0.749115c-0.28092-0.2340965-0.585247-0.3628521-0.7783794-0.0994911   C24.9370956,18.6814651,25.0834084,18.9097099,25.3643284,19.1672173z" fill="#ffffff" style=""></path><path d="M23.573473,17.6865444c0.2809181,0.2341003,0.5852451,0.3570004,0.7783775,0.0994911   c0.1931343-0.2575111,0.0468216-0.5150185-0.2340984-0.749115c-0.28092-0.2340984-0.585247-0.362854-0.7783794-0.0994911   C23.1462402,17.2007904,23.2925529,17.4524441,23.573473,17.6865444z" fill="#ffffff" style=""></path><path d="M21.6480103,16.1766071c0.2809181,0.2340984,0.5852451,0.3570004,0.7783794,0.0994892   c0.1931324-0.2575092,0.0468197-0.5150166-0.2341003-0.749114s-0.585247-0.3628531-0.7783794-0.0994911   C21.2207775,15.6908522,21.3670921,15.9425087,21.6480103,16.1766071z" fill="#ffffff" style=""></path><path d="M30.6783676,18.3946915c-0.2399502,0.2750683-0.5033112,0.4389362-0.7549686,0.2165413   c-0.2516556-0.2223949-0.1229-0.5033131,0.1170502-0.7783794c0.2399521-0.2750664,0.5033131-0.4389343,0.7549686-0.2165394   C31.0470753,17.838707,30.9183197,18.1196251,30.6783676,18.3946915z" fill="#ffffff" style=""></path><path d="M32.3638802,16.4282627c-0.2516556,0.2692127-0.5150185,0.4213791-0.7608204,0.1989841   s-0.1111965-0.5091648,0.1404591-0.7725258c0.2516575-0.2633619,0.5150185-0.4272299,0.7608223-0.1989841   C32.7501411,15.8839827,32.609684,16.15905,32.3638802,16.4282627z" fill="#ffffff" style=""></path><path d="M34.1137695,14.5145054c-0.2399521,0.2809181-0.4974594,0.4447861-0.7549706,0.2282457   c-0.2575073-0.2165403-0.1287537-0.5033131,0.1053467-0.7783785s0.4974594-0.4506397,0.7549667-0.2282457   C34.4766235,13.9585218,34.3537178,14.23944,34.1137695,14.5145054z" fill="#ffffff" style=""></path><path d="M35.5944443,12.8816671c-0.2458038,0.2692127-0.5091667,0.4330826-0.7608223,0.2106895   c-0.2516594-0.222394-0.1170502-0.5033131,0.1287537-0.7783785s0.5091667-0.4330826,0.7608223-0.2106895   S35.8402443,12.6066017,35.5944443,12.8816671z" fill="#ffffff" style=""></path><path d="M41.9034042,14.2745543c0.2809181,0.2340994,0.585247,0.3570004,0.7783775,0.0994921   c0.1931343-0.2575092,0.0468216-0.5150166-0.2341003-0.7491169c-0.2809181-0.2340994-0.585247-0.3628531-0.7783775-0.0994921   C41.4761696,13.7887993,41.6224823,14.0404558,41.9034042,14.2745543z" fill="#ffffff" style=""></path><path d="M39.9720879,12.764617c0.2809181,0.2340984,0.585247,0.3570013,0.7783775,0.0994921   c0.1931343-0.2575083,0.0468216-0.5150166-0.2341003-0.7491159c-0.2809181-0.2340994-0.585247-0.362854-0.7783775-0.0994921   C39.5448532,12.278862,39.6970253,12.5305185,39.9720879,12.764617z" fill="#ffffff" style=""></path><path d="M14.9039164,35.8700104c0.0230436-0.1701012-0.099226-0.2918701-0.2064304-0.4291878   c-0.1080942-0.1346512-0.1638393-0.2334709-0.3427935-0.2582474c-0.1771746-0.0239296-0.3171635,0.0132523-0.4393997,0.1124954   c-0.5191603,0.3782845-1.1065092,0.5669785-1.755868,0.5669785c-0.6617689,0-1.2561893-0.2524834-1.7646685-0.7494926   c-0.511199-0.500515-0.7698641-1.1007233-0.7698641-1.7846451c0-0.6843185,0.2613354-1.2871933,0.7778254-1.7917175   c0.5164404-0.5035839,1.1100197-0.7587376,1.7646685-0.7587376c0.6422873,0,1.2269669,0.1882496,1.7381649,0.5598564   c0.1452799,0.1187248,0.1875868,0.1339722,0.3594694,0.1135998c0.1727238-0.0243282,0.2814054-0.1397648,0.3903904-0.2761936   c0.1054239-0.134203,0.192441-0.3338165,0.1685085-0.5136604c-0.0247746-0.181179-0.118392-0.2849579-0.1565151-0.3159313   c-0.4786568-0.3888874-1.0224466-0.6130619-1.5833416-0.7373753v-1.0981541c0-0.2239017-0.181179-0.228405-0.4050817-0.228405   s-0.4050827,0.0045033-0.4050827,0.228405v0.9980202c-0.0114717-0.0000992-0.0223503-0.0027695-0.0338717-0.0027695   c-0.3183994,0.003067-0.6203814,0.0516243-0.9139566,0.122385v-1.1176357c0-0.2239017-0.18118-0.228405-0.4050827-0.228405   s-0.4050827,0.0045033-0.4050827,0.228405v1.4202118c-0.3583031,0.1808338-0.6989546,0.4052315-1.0070677,0.7045918   c-0.7671938,0.748106-1.1410246,1.6238384-1.1410246,2.6771412c0,1.039608,0.3844624,1.943676,1.1419144,2.6860466   c0.3075695,0.301487,0.6479235,0.5263786,1.0061779,0.7067642v1.3737297c0,0.2239037,0.18118,0.2308807,0.4050827,0.2308807   s0.4050827-0.0069771,0.4050827-0.2308807v-1.0741196c0.2933779,0.068882,0.5953102,0.1151657,0.9139566,0.1151657   c0.0114222,0,0.0224495-0.0026207,0.0338717-0.0027199v0.9616737c0,0.2239037,0.18118,0.2308807,0.4050827,0.2308807   s0.4050817-0.0069771,0.4050817-0.2308807v-1.0611649c0.5535269-0.1209984,1.0869284-0.3510818,1.5895233-0.7101784   C14.7967119,36.1960258,14.878253,36.0480728,14.9039164,35.8700104z" fill="#ffffff" style=""></path></g><desc>Created with Snap</desc><defs></defs></g><g><g transform="matrix(1.024,0,0,-1.024,0,0)"><path d="M410 165Q417 175 430 200Q462 257 468 257Q475 257 475 249Q475 200 424 125Q332 -10 179 -10Q136 -10 100 10Q64 30 43 61Q0 124 0 193Q0 367 90 473Q181 580 305 580Q352 580 382 552Q412 525 412 483Q412 441 391 405Q370 369 340 369Q311 369 311 385Q311 403 330 426Q350 449 350 472Q350 543 274 543Q199 543 138 442Q77 341 77 234Q77 160 119 102Q161 45 237 45Q327 45 410 165ZM725 217Q765 230 780 239Q796 249 804 254L816 261Q821 264 824 264Q832 264 832 255Q832 246 801 223Q770 201 724 183Q717 99 671 47Q625 -5 540 -5Q478 -5 445 44Q412 94 412 160Q412 227 451 286Q491 345 553 345Q581 365 619 365Q658 365 691 324Q724 283 725 217ZM660 166L624 164Q578 164 546 191Q514 219 514 252Q514 285 525 309Q482 275 482 175Q482 127 502 83Q522 40 565 40Q608 40 632 76Q656 113 660 166ZM598 332Q582 332 573 317Q564 303 564 286Q564 249 589 226Q615 203 649 203L661 203Q659 252 644 292Q630 332 598 332ZM813 489Q813 507 832 520Q851 533 866 533Q893 533 893 502Q893 471 877 448Q861 426 832 426Q813 426 813 489ZM842 -5Q803 -5 783 11Q776 18 776 61Q776 104 782 204Q789 305 794 313Q799 321 825 343Q851 365 865 365Q880 365 880 327Q880 317 874 288Q869 259 862 246Q849 213 849 73Q849 46 855 46Q872 47 902 88Q932 130 961 195Q991 260 997 260Q1004 260 1004 252Q1004 224 975 163Q896 -5 842 -5ZM1029 54L1030 23Q1030 -5 1014 -5Q990 -5 968 1Q946 8 946 19Q946 31 951 98Q957 166 957 200L957 259Q957 307 967 317Q977 327 1002 346Q1028 365 1039 365Q1051 365 1054 361Q1057 357 1057 346Q1057 293 1037 246Q1032 189 1032 167Q1036 173 1074 235Q1112 297 1138 326Q1165 355 1186 355Q1207 355 1223 341Q1240 327 1240 306Q1240 262 1230 176Q1221 91 1221 68Q1221 46 1227 46Q1244 47 1274 88Q1304 130 1333 195Q1363 260 1369 260Q1376 260 1376 252Q1376 224 1347 163Q1268 -5 1214 -5Q1175 -5 1155 11Q1148 18 1148 47Q1148 77 1153 143Q1159 210 1159 243Q1159 276 1147 276Q1136 276 1087 207Q1038 139 1035 120Q1029 85 1029 54ZM1470 306L1472 321Q1472 339 1451 339Q1431 339 1412 312Q1393 286 1393 269Q1393 252 1395 242Q1397 232 1399 225Q1402 219 1408 210Q1414 201 1417 197L1428 183Q1435 173 1438 170Q1490 213 1562 266Q1566 269 1571 269Q1581 269 1581 258Q1581 247 1572 241Q1508 200 1451 152Q1473 120 1473 82Q1473 44 1444 17Q1415 -10 1370 -10Q1325 -10 1325 33Q1325 64 1391 128Q1386 134 1373 147Q1360 161 1353 169Q1347 177 1338 190Q1322 215 1322 244Q1322 303 1360 339Q1398 376 1441 376Q1468 376 1483 361Q1498 347 1498 332Q1498 298 1482 298Q1470 298 1470 306ZM1406 109Q1366 69 1366 44Q1366 20 1391 20Q1406 20 1416 32Q1438 62 1406 109ZM1940 165Q1947 175 1960 200Q1992 257 1998 257Q2005 257 2005 249Q2005 200 1954 125Q1862 -10 1709 -10Q1666 -10 1630 10Q1594 30 1573 61Q1530 124 1530 193Q1530 367 1620 473Q1711 580 1835 580Q1882 580 1912 552Q1942 525 1942 483Q1942 441 1921 405Q1900 369 1870 369Q1841 369 1841 385Q1841 403 1860 426Q1880 449 1880 472Q1880 543 1804 543Q1729 543 1668 442Q1607 341 1607 234Q1607 160 1649 102Q1691 45 1767 45Q1857 45 1940 165ZM2223 -5Q2184 -5 2164 11Q2157 18 2157 46Q2157 75 2159 123Q2133 58 2107 26Q2082 -5 2042 -5Q2002 -5 1972 32Q1942 70 1942 150Q1942 231 1987 293Q2033 355 2107 355Q2139 355 2179 313Q2187 324 2207 339Q2228 355 2242 355Q2257 355 2257 317Q2257 307 2251 278Q2246 249 2239 236Q2230 213 2230 73Q2230 46 2236 46Q2253 47 2283 88Q2313 130 2342 195Q2372 260 2378 260Q2385 260 2385 252Q2385 224 2356 163Q2277 -5 2223 -5ZM2101 315Q2073 315 2041 273Q2010 232 2010 176Q2010 120 2026 84Q2043 48 2070 48Q2103 48 2167 213Q2168 221 2169 240Q2171 260 2172 270Q2163 286 2140 300Q2118 315 2101 315ZM2356 311Q2367 324 2391 344Q2415 365 2429 365Q2443 365 2443 325Q2443 286 2422 248Q2418 230 2416 196Q2445 275 2474 315Q2503 355 2544 355Q2586 355 2617 317Q2648 280 2648 199Q2648 119 2602 57Q2557 -5 2483 -5Q2445 -5 2406 23Q2406 -168 2384 -268Q2382 -277 2357 -299Q2333 -320 2321 -320Q2310 -320 2305 -304Q2300 -288 2300 -274Q2300 -171 2342 -9Q2349 85 2351 197Q2354 309 2356 311ZM2489 31Q2518 31 2549 71Q2580 112 2580 171Q2580 231 2563 266Q2547 302 2519 302Q2471 302 2410 103Q2408 75 2408 59Q2436 31 2489 31ZM2722 489Q2722 507 2741 520Q2760 533 2775 533Q2802 533 2802 502Q2802 471 2786 448Q2770 426 2741 426Q2722 426 2722 489ZM2751 -5Q2712 -5 2692 11Q2685 18 2685 61Q2685 104 2691 204Q2698 305 2703 313Q2708 321 2734 343Q2760 365 2774 365Q2789 365 2789 327Q2789 317 2783 288Q2778 259 2771 246Q2758 213 2758 73Q2758 46 2764 46Q2781 47 2811 88Q2841 130 2870 195Q2900 260 2906 260Q2913 260 2913 252Q2913 224 2884 163Q2805 -5 2751 -5ZM3084 163Q3005 -5 2950 -5Q2896 -5 2886 8Q2877 21 2877 94Q2877 167 2891 305Q2841 315 2838 346Q2838 362 2859 362Q2880 362 2896 354Q2905 426 2917 500Q2920 519 2936 536Q2952 553 2967 553Q2980 553 2980 512Q2980 493 2966 337Q2993 342 3025 357Q3058 372 3064 372Q3082 372 3082 361Q3083 351 3045 333Q3007 316 2963 307Q2951 161 2951 86Q2951 46 2963 46Q2981 47 3011 88Q3041 129 3070 194Q3100 260 3106 260Q3113 260 3113 252Q3113 224 3084 163ZM3342 -5Q3303 -5 3283 11Q3276 18 3276 46Q3276 75 3278 123Q3252 58 3226 26Q3201 -5 3161 -5Q3121 -5 3091 32Q3061 70 3061 150Q3061 231 3106 293Q3152 355 3226 355Q3258 355 3298 313Q3306 324 3326 339Q3347 355 3361 355Q3376 355 3376 317Q3376 307 3370 278Q3365 249 3358 236Q3349 213 3349 73Q3349 46 3355 46Q3372 47 3402 88Q3432 130 3461 195Q3491 260 3497 260Q3504 260 3504 252Q3504 224 3475 163Q3396 -5 3342 -5ZM3220 315Q3192 315 3160 273Q3129 232 3129 176Q3129 120 3145 84Q3162 48 3189 48Q3222 48 3286 213Q3287 221 3288 240Q3290 260 3291 270Q3282 286 3259 300Q3237 315 3220 315ZM3517 -5Q3495 -5 3476 0Q3458 6 3454 11Q3444 23 3444 135Q3444 248 3469 441Q3490 600 3567 600Q3585 600 3593 580Q3601 561 3601 543Q3601 413 3522 252Q3519 169 3519 107Q3519 46 3530 46Q3547 47 3577 88Q3607 130 3636 195Q3666 260 3672 260Q3679 260 3679 252Q3679 224 3650 163Q3571 -5 3517 -5ZM3576 534Q3576 566 3568 566Q3538 566 3524 317Q3576 454 3576 534Z" fill="#ffffff" style=""></path></g></g></g></svg>